0
SECTION
2
HEADER
9
$INSUNITS
70
4
9
$ACADVER
1
AC1014
9
$HANDSEED
5
FFFF
0
ENDSEC
0
SECTION
2
TABLES
0
TABLE
2
VPORT
5
8
100
AcDbSymbolTable
0
ENDTAB
0
TABLE
2
LTYPE
5
5
100
AcDbSymbolTable
0
LTYPE
5
14
100
AcDbSymbolTableRecord
100
AcDbLinetypeTableRecord
2
BYBLOCK
70
0
0
LTYPE
5
15
100
AcDbSymbolTableRecord
100
AcDbLinetypeTableRecord
2
BYLAYER
70
0
0
ENDTAB
0
TABLE
2
LAYER
5
2
100
AcDbSymbolTable
70
2
0
LAYER
5
50
100
AcDbSymbolTableRecord
100
AcDbLayerTableRecord
2
0
70
0
6
CONTINUOUS
0
ENDTAB
0
TABLE
2
STYLE
5
3
100
AcDbSymbolTable
70
1
0
STYLE
5
11
100
AcDbSymbolTableRecord
100
AcDbTextStyleTableRecord
2
STANDARD
70
0
0
ENDTAB
0
TABLE
2
VIEW
5
6
100
AcDbSymbolTable
70
0
0
ENDTAB
0
TABLE
2
UCS
5
7
100
AcDbSymbolTable
70
0
0
ENDTAB
0
TABLE
2
APPID
5
9
100
AcDbSymbolTable
70
2
0
APPID
5
12
100
AcDbSymbolTableRecord
100
AcDbRegAppTableRecord
2
ACAD
70
0
0
ENDTAB
0
TABLE
2
DIMSTYLE
5
A
100
AcDbSymbolTable
70
1
0
ENDTAB
0
TABLE
2
BLOCK_RECORD
5
1
100
AcDbSymbolTable
70
1
0
BLOCK_RECORD
5
1F
100
AcDbSymbolTableRecord
100
AcDbBlockTableRecord
2
*MODEL_SPACE
0
BLOCK_RECORD
5
1B
100
AcDbSymbolTableRecord
100
AcDbBlockTableRecord
2
*PAPER_SPACE
0
ENDTAB
0
ENDSEC
0
SECTION
2
BLOCKS
0
BLOCK
5
20
100
AcDbEntity
100
AcDbBlockBegin
2
*MODEL_SPACE
0
ENDBLK
5
21
100
AcDbEntity
100
AcDbBlockEnd
0
BLOCK
5
1C
100
AcDbEntity
100
AcDbBlockBegin
2
*PAPER_SPACE
0
ENDBLK
5
1D
100
AcDbEntity
100
AcDbBlockEnd
0
ENDSEC
0
SECTION
2
ENTITIES
0
LWPOLYLINE
5
100
100
AcDbEntity
8
0
100
AcDbPolyline
90
16
70
1
43
0.0
10
28.500000000000011
20
-25.75735931288072
10
28.500000000000011
20
-18.000000000000007
42
-0.99999999999999989
10
31.500000000000007
20
-18.000000000000004
10
31.500000000000004
20
-25.757359312880716
42
-0.22654091966098683
10
34.242640687119291
20
-28.499999999999996
10
42.000000000000014
20
-28.5
42
-0.99999999999999989
10
42.000000000000014
20
-31.500000000000007
10
34.242640687119298
20
-31.500000000000007
42
-0.22654091966098672
10
31.500000000000004
20
-34.242640687119291
10
31.500000000000007
20
-42.000000000000043
42
-0.99999999999999989
10
28.500000000000011
20
-41.999999999999993
10
28.500000000000007
20
-34.242640687119291
42
-0.226540919660986
10
25.757359312880723
20
-31.500000000000004
10
17.999998750499657
20
-31.499999999999485
42
-0.99999958349996976
10
18.000000000000007
20
-28.500000000000007
10
25.75735931288073
20
-28.500000000000007
42
-0.22654091966098636
0
CIRCLE
5
101
100
AcDbEntity
8
0
100
AcDbCircle
10
18.000000000000007
20
-12.000000000000002
30
0
40
1.4999999999999991
210
0
220
-0
230
1
0
CIRCLE
5
102
100
AcDbEntity
8
0
100
AcDbCircle
10
12.000000000000007
20
-24.000000000000004
30
0
40
1.4999999999999991
210
0
220
-0
230
1
0
LWPOLYLINE
5
103
100
AcDbEntity
8
0
100
AcDbPolyline
90
4
70
1
43
0.0
10
39.999999999999993
20
-6.499999999999968
42
0.99999999999999989
10
39.999999999999986
20
-3.4999999999999787
10
20.000000133176922
20
-3.4999999999999938
42
1.0000000440782302
10
19.999999999999996
20
-6.4999999999999769
0
CIRCLE
5
104
100
AcDbEntity
8
0
100
AcDbCircle
10
36.000000000000007
20
-24.000000000000004
30
0
40
1.4999999999999991
210
0
220
-0
230
1
0
CIRCLE
5
105
100
AcDbEntity
8
0
100
AcDbCircle
10
48.000000000000007
20
-30.000000000000004
30
0
40
1.5000000000000036
210
0
220
-0
230
1
0
CIRCLE
5
106
100
AcDbEntity
8
0
100
AcDbCircle
10
24.000000000000007
20
-12.000000000000002
30
0
40
1.4999999999999991
210
0
220
-0
230
1
0
CIRCLE
5
107
100
AcDbEntity
8
0
100
AcDbCircle
10
36.000000000000007
20
-18.000000000000004
30
0
40
1.4999999999999991
210
0
220
-0
230
1
0
CIRCLE
5
108
100
AcDbEntity
8
0
100
AcDbCircle
10
12.000000000000007
20
-30.000000000000004
30
0
40
1.4999999999999991
210
0
220
-0
230
1
0
CIRCLE
5
109
100
AcDbEntity
8
0
100
AcDbCircle
10
12.000000000000007
20
-42.000000000000014
30
0
40
1.4999999999999991
210
0
220
-0
230
1
0
CIRCLE
5
110
100
AcDbEntity
8
0
100
AcDbCircle
10
24.000000000000007
20
-42.000000000000014
30
0
40
1.4999999999999991
210
0
220
-0
230
1
0
CIRCLE
5
111
100
AcDbEntity
8
0
100
AcDbCircle
10
18.000000000000007
20
-18.000000000000004
30
0
40
1.4999999999999991
210
0
220
-0
230
1
0
CIRCLE
5
112
100
AcDbEntity
8
0
100
AcDbCircle
10
12.000000000000007
20
-48.000000000000007
30
0
40
1.4999999999999991
210
0
220
-0
230
1
0
CIRCLE
5
113
100
AcDbEntity
8
0
100
AcDbCircle
10
24.000000000000007
20
-48.000000000000007
30
0
40
1.4999999999999991
210
0
220
-0
230
1
0
CIRCLE
5
114
100
AcDbEntity
8
0
100
AcDbCircle
10
36.000000000000007
20
-42.000000000000014
30
0
40
1.4999999999999991
210
0
220
-0
230
1
0
CIRCLE
5
115
100
AcDbEntity
8
0
100
AcDbCircle
10
42.000000000000014
20
-12.000000000000002
30
0
40
1.5000000000000036
210
0
220
-0
230
1
0
CIRCLE
5
116
100
AcDbEntity
8
0
100
AcDbCircle
10
48.000000000000007
20
-18.000000000000004
30
0
40
1.5000000000000036
210
0
220
-0
230
1
0
CIRCLE
5
117
100
AcDbEntity
8
0
100
AcDbCircle
10
24.000000000000007
20
-24.000000000000004
30
0
40
1.4999999999999991
210
0
220
-0
230
1
0
CIRCLE
5
118
100
AcDbEntity
8
0
100
AcDbCircle
10
18.000000000000007
20
-42.000000000000014
30
0
40
1.4999999999999991
210
0
220
-0
230
1
0
LWPOLYLINE
5
119
100
AcDbEntity
8
0
100
AcDbPolyline
90
4
70
1
43
0.0
10
6.4999999999999858
20
-20.000000000000021
42
0.99999999999999989
10
3.4999999999999964
20
-20.000000000000021
10
3.5000000000000115
20
-39.999999866823103
42
1.0000000440782302
10
6.4999999999999947
20
-40.000000000000028
0
CIRCLE
5
120
100
AcDbEntity
8
0
100
AcDbCircle
10
30.000000000000007
20
-12.000000000000002
30
0
40
1.4999999999999991
210
0
220
-0
230
1
0
CIRCLE
5
121
100
AcDbEntity
8
0
100
AcDbCircle
10
24.000000000000007
20
-36.000000000000007
30
0
40
1.4999999999999991
210
0
220
-0
230
1
0
CIRCLE
5
122
100
AcDbEntity
8
0
100
AcDbCircle
10
48.000000000000007
20
-48.000000000000007
30
0
40
1.5000000000000036
210
0
220
-0
230
1
0
CIRCLE
5
123
100
AcDbEntity
8
0
100
AcDbCircle
10
12.000000000000007
20
-18.000000000000004
30
0
40
1.4999999999999991
210
0
220
-0
230
1
0
CIRCLE
5
124
100
AcDbEntity
8
0
100
AcDbCircle
10
12.000000000000007
20
-36.000000000000007
30
0
40
1.4999999999999991
210
0
220
-0
230
1
0
CIRCLE
5
125
100
AcDbEntity
8
0
100
AcDbCircle
10
18.000000000000007
20
-24.000000000000004
30
0
40
1.4999999999999991
210
0
220
-0
230
1
0
CIRCLE
5
126
100
AcDbEntity
8
0
100
AcDbCircle
10
18.000000000000007
20
-36.000000000000007
30
0
40
1.4999999999999991
210
0
220
-0
230
1
0
LWPOLYLINE
5
127
100
AcDbEntity
8
0
100
AcDbPolyline
90
4
70
1
43
0.0
10
20.000000000000018
20
-53.500000000000043
42
0.99999999999999989
10
20.000000000000007
20
-56.500000000000028
10
39.999999897591287
20
-56.500000000000014
42
1.0000000341428499
10
40.000000000000014
20
-53.500000000000021
0
CIRCLE
5
128
100
AcDbEntity
8
0
100
AcDbCircle
10
18.000000000000007
20
-48.000000000000007
30
0
40
1.4999999999999991
210
0
220
-0
230
1
0
CIRCLE
5
129
100
AcDbEntity
8
0
100
AcDbCircle
10
48.000000000000007
20
-12.000000000000002
30
0
40
1.5000000000000036
210
0
220
-0
230
1
0
CIRCLE
5
130
100
AcDbEntity
8
0
100
AcDbCircle
10
42.000000000000014
20
-36.000000000000007
30
0
40
1.5000000000000036
210
0
220
-0
230
1
0
CIRCLE
5
131
100
AcDbEntity
8
0
100
AcDbCircle
10
30.000000000000007
20
-48.000000000000007
30
0
40
1.4999999999999991
210
0
220
-0
230
1
0
LWPOLYLINE
5
132
100
AcDbEntity
8
0
100
AcDbPolyline
90
4
70
1
43
0.0
10
53.500000000000043
20
-39.999999999999986
42
0.99999999999999989
10
56.500000000000028
20
-39.999999999999993
10
56.500000000000014
20
-19.999999999999986
42
0.99999999999999989
10
53.500000000000021
20
-19.999999999999986
0
CIRCLE
5
133
100
AcDbEntity
8
0
100
AcDbCircle
10
42.000000000000014
20
-48.000000000000007
30
0
40
1.5000000000000036
210
0
220
-0
230
1
0
CIRCLE
5
134
100
AcDbEntity
8
0
100
AcDbCircle
10
42.000000000000014
20
-18.000000000000004
30
0
40
1.5000000000000036
210
0
220
-0
230
1
0
CIRCLE
5
135
100
AcDbEntity
8
0
100
AcDbCircle
10
48.000000000000007
20
-24.000000000000004
30
0
40
1.5000000000000036
210
0
220
-0
230
1
0
CIRCLE
5
136
100
AcDbEntity
8
0
100
AcDbCircle
10
42.000000000000014
20
-42.000000000000014
30
0
40
1.5000000000000036
210
0
220
-0
230
1
0
CIRCLE
5
137
100
AcDbEntity
8
0
100
AcDbCircle
10
12.000000000000007
20
-12.000000000000002
30
0
40
1.4999999999999991
210
0
220
-0
230
1
0
CIRCLE
5
138
100
AcDbEntity
8
0
100
AcDbCircle
10
48.000000000000007
20
-42.000000000000014
30
0
40
1.5000000000000036
210
0
220
-0
230
1
0
CIRCLE
5
139
100
AcDbEntity
8
0
100
AcDbCircle
10
24.000000000000007
20
-18.000000000000004
30
0
40
1.4999999999999991
210
0
220
-0
230
1
0
CIRCLE
5
140
100
AcDbEntity
8
0
100
AcDbCircle
10
36.000000000000007
20
-36.000000000000007
30
0
40
1.4999999999999991
210
0
220
-0
230
1
0
CIRCLE
5
141
100
AcDbEntity
8
0
100
AcDbCircle
10
36.000000000000007
20
-48.000000000000007
30
0
40
1.4999999999999991
210
0
220
-0
230
1
0
CIRCLE
5
142
100
AcDbEntity
8
0
100
AcDbCircle
10
42.000000000000014
20
-24.000000000000004
30
0
40
1.5000000000000036
210
0
220
-0
230
1
0
CIRCLE
5
143
100
AcDbEntity
8
0
100
AcDbCircle
10
48.000000000000007
20
-36.000000000000007
30
0
40
1.5000000000000036
210
0
220
-0
230
1
0
CIRCLE
5
144
100
AcDbEntity
8
0
100
AcDbCircle
10
36.000000000000007
20
-12.000000000000002
30
0
40
1.4999999999999991
210
0
220
-0
230
1
0
LWPOLYLINE
5
145
100
AcDbEntity
8
0
100
AcDbPolyline
90
8
70
1
43
0.0
10
5.5511151231257827e-16
20
-55
42
0.41421356237309515
10
4.9999999999999991
20
-60
10
55
20
-60
42
0.41421356237309509
10
60
20
-55
10
60
20
-5
42
0.4142135623730952
10
55
20
2.7755575615628914e-15
10
5
20
0
42
0.41421356237309492
10
1.1102230246251565e-15
20
-4.9999999999999991
0
ENDSEC
0
SECTION
2
OBJECTS
0
DICTIONARY
5
C
100
AcDbDictionary
3
ACAD_GROUP
350
D
3
ACAD_MLINESTYLE
350
17
0
DICTIONARY
5
D
100
AcDbDictionary
0
DICTIONARY
5
1A
330
C
100
AcDbDictionary
0
DICTIONARY
5
17
100
AcDbDictionary
0
ENDSEC
0
EOF
