0
SECTION
2
HEADER
9
$INSUNITS
70
4
9
$ACADVER
1
AC1014
9
$HANDSEED
5
FFFF
0
ENDSEC
0
SECTION
2
TABLES
0
TABLE
2
VPORT
5
8
100
AcDbSymbolTable
0
ENDTAB
0
TABLE
2
LTYPE
5
5
100
AcDbSymbolTable
0
LTYPE
5
14
100
AcDbSymbolTableRecord
100
AcDbLinetypeTableRecord
2
BYBLOCK
70
0
0
LTYPE
5
15
100
AcDbSymbolTableRecord
100
AcDbLinetypeTableRecord
2
BYLAYER
70
0
0
ENDTAB
0
TABLE
2
LAYER
5
2
100
AcDbSymbolTable
70
2
0
LAYER
5
50
100
AcDbSymbolTableRecord
100
AcDbLayerTableRecord
2
0
70
0
6
CONTINUOUS
0
ENDTAB
0
TABLE
2
STYLE
5
3
100
AcDbSymbolTable
70
1
0
STYLE
5
11
100
AcDbSymbolTableRecord
100
AcDbTextStyleTableRecord
2
STANDARD
70
0
0
ENDTAB
0
TABLE
2
VIEW
5
6
100
AcDbSymbolTable
70
0
0
ENDTAB
0
TABLE
2
UCS
5
7
100
AcDbSymbolTable
70
0
0
ENDTAB
0
TABLE
2
APPID
5
9
100
AcDbSymbolTable
70
2
0
APPID
5
12
100
AcDbSymbolTableRecord
100
AcDbRegAppTableRecord
2
ACAD
70
0
0
ENDTAB
0
TABLE
2
DIMSTYLE
5
A
100
AcDbSymbolTable
70
1
0
ENDTAB
0
TABLE
2
BLOCK_RECORD
5
1
100
AcDbSymbolTable
70
1
0
BLOCK_RECORD
5
1F
100
AcDbSymbolTableRecord
100
AcDbBlockTableRecord
2
*MODEL_SPACE
0
BLOCK_RECORD
5
1B
100
AcDbSymbolTableRecord
100
AcDbBlockTableRecord
2
*PAPER_SPACE
0
ENDTAB
0
ENDSEC
0
SECTION
2
BLOCKS
0
BLOCK
5
20
100
AcDbEntity
100
AcDbBlockBegin
2
*MODEL_SPACE
0
ENDBLK
5
21
100
AcDbEntity
100
AcDbBlockEnd
0
BLOCK
5
1C
100
AcDbEntity
100
AcDbBlockBegin
2
*PAPER_SPACE
0
ENDBLK
5
1D
100
AcDbEntity
100
AcDbBlockEnd
0
ENDSEC
0
SECTION
2
ENTITIES
0
LWPOLYLINE
5
100
100
AcDbEntity
8
0
100
AcDbPolyline
90
2
70
1
43
0.0
10
28.951191151829995
20
19.849999999999994
42
2.0976176963357762
10
31.048808848174325
20
19.849999999999994
0
LWPOLYLINE
5
101
100
AcDbEntity
8
0
100
AcDbPolyline
90
6
70
1
43
0.0
10
16.071881660608788
20
40.366949134401331
42
0.42174251276414554
10
13.95157439383267
20
40.712854155161516
42
0.030824563335295051
10
11.403792748907884
20
38.57501151658488
42
0.42174251276414454
10
11.376255202188727
20
36.426850704994784
10
24.118432755571135
20
23.684673151612522
42
0.91633117401743158
10
26.407820993784426
20
25.605697977918929
0
LWPOLYLINE
5
102
100
AcDbEntity
8
0
100
AcDbPolyline
90
6
70
1
43
0.0
10
50.396077030339008
20
3.685332600390669
42
0.42174251276413749
10
52.506820607504721
20
4.0854760001667501
42
0.030824563335296862
10
54.16976697296063
20
6.9657835953983795
42
0.42174251276414332
10
53.46092953374054
20
8.9938128539867854
10
37.129117920993224
20
16.609461680555487
42
0.91633117401705588
10
35.634825873856741
20
14.02127193356649
0
LWPOLYLINE
5
103
100
AcDbEntity
8
0
100
AcDbPolyline
90
6
70
1
43
0.0
10
48.623744797811284
20
36.42685070499477
42
0.42174251276414682
10
48.596207251092125
20
38.575011516584865
42
0.030824563335297761
10
46.048425606167342
20
40.712854155161502
42
0.42174251276414326
10
43.928118339391219
20
40.36694913440131
10
33.592179006214863
20
25.605697977917909
42
0.91633117401705855
10
35.881567244428886
20
23.684673151612539
0
LWPOLYLINE
5
104
100
AcDbEntity
8
0
100
AcDbPolyline
90
6
70
1
43
0.0
10
5.5960321826101289
20
26.415210756005475
42
0.42174251276414243
10
3.7494391217184919
20
25.317282135193743
42
0.030824563335293244
10
3.1719039098799713
20
22.041917188104861
42
0.42174251276414176
10
4.5316200785429217
20
20.378629741628082
10
22.483208238288164
20
18.808069285364258
42
0.91633117401705921
10
23.002170420062189
20
21.751250071935591
0
LWPOLYLINE
5
105
100
AcDbEntity
8
0
100
AcDbPolyline
90
6
70
1
43
0.0
10
31.662946365455902
20
45.948740404434801
42
0.030824563335296637
10
28.337053634544116
20
45.948740404434815
42
0.42174251276414915
10
26.935147496598479
20
44.320854545622524
10
28.505707952862487
20
26.369266385877303
42
0.91633117401705544
10
31.494292047137726
20
26.369266385878536
10
33.064852503401532
20
44.320854545622524
42
0.42174251276414915
0
LWPOLYLINE
5
106
100
AcDbEntity
8
0
100
AcDbPolyline
90
6
70
1
43
0.0
10
6.5390704662594414
20
8.9938128539868085
42
0.42174251276414271
10
5.8302330270393465
20
6.965783595398416
42
0.030824563335292113
10
7.4931793924952501
20
4.0854760001667954
42
0.42174251276414398
10
9.6039229696609674
20
3.6853326003906961
10
24.365174126144275
20
14.021271933567217
42
0.91633117401706043
10
22.870882079005632
20
16.609461680554965
0
LWPOLYLINE
5
107
100
AcDbEntity
8
0
100
AcDbPolyline
90
6
70
1
43
0.0
10
35.780223019578578
20
-5.8420614610002293
42
0.42174251276413693
10
37.654353627189352
20
-6.8922936517785978
42
0.030824563335294597
10
40.779670483952671
20
-5.754771343266337
42
0.42174251276414187
10
41.540261582065845
20
-3.7455788760293807
10
33.924612755496966
20
12.586232736717843
42
0.91633117401705777
10
31.116262335508917
20
11.564076776451877
0
LWPOLYLINE
5
108
100
AcDbEntity
8
0
100
AcDbPolyline
90
6
70
1
43
0.0
10
18.45973841793414
20
-3.745578876029374
42
0.42174251276414276
10
19.2203295160473
20
-5.7547713432663254
42
0.030824563335292793
10
22.345646372810592
20
-6.8922936517785738
42
0.42174251276414682
10
24.219776980421397
20
-5.8420614610002186
10
28.883737664491402
20
11.564076776453087
42
0.91633117401705844
10
26.075387244502501
20
12.586232736716711
0
LWPOLYLINE
5
109
100
AcDbEntity
8
0
100
AcDbPolyline
90
6
70
1
43
0.0
10
55.468379921457078
20
20.378629741628046
42
0.42174251276414271
10
56.828096090120034
20
22.041917188104826
42
0.030824563335297761
10
56.250560878281519
20
25.317282135193718
42
0.42174251276414471
10
54.403967817389862
20
26.41521075600545
10
36.997829579936607
20
21.751250071935267
42
0.91633117401705633
10
37.516791761713073
20
18.808069285364365
0
CIRCLE
5
110
100
AcDbEntity
8
0
100
AcDbCircle
10
30.00000000000216
20
19.000000000001275
30
0
40
30
210
0
220
-0
230
1
0
ENDSEC
0
SECTION
2
OBJECTS
0
DICTIONARY
5
C
100
AcDbDictionary
3
ACAD_GROUP
350
D
3
ACAD_MLINESTYLE
350
17
0
DICTIONARY
5
D
100
AcDbDictionary
0
DICTIONARY
5
1A
330
C
100
AcDbDictionary
0
DICTIONARY
5
17
100
AcDbDictionary
0
ENDSEC
0
EOF
